<?xml version="1.0" encoding="UTF-8" standalone="no" ?>
<!DOCTYPE svg PUBLIC "-//W3C//DTD SVG 1.1//EN" "http://www.w3.org/Graphics/SVG/1.1/DTD/svg11.dtd">
<svg xmlns="http://www.w3.org/2000/svg" xmlns:xlink="http://www.w3.org/1999/xlink" version="1.1" width="1080" height="1080" viewBox="0 0 1080 1080" xml:space="preserve">
<desc>Created with Fabric.js 5.2.4</desc>
<defs>
</defs>
<g transform="matrix(1 0 0 1 540 540)" id="f5ebc573-8fa2-42a2-b74b-0c27af3976ae"  >
<rect style="stroke: none; stroke-width: 1; stroke-dasharray: none; stroke-linecap: butt; stroke-dashoffset: 0; stroke-linejoin: miter; stroke-miterlimit: 4; fill: rgb(255,255,255); fill-rule: nonzero; opacity: 1; visibility: hidden;" vector-effect="non-scaling-stroke"  x="-540" y="-540" rx="0" ry="0" width="1080" height="1080" />
</g>
<g transform="matrix(1 0 0 1 540 540)" id="9db4fbe3-0b0d-4ee5-8f71-60864b6716ac"  >
</g>
<g transform="matrix(17.97 0 0 17.97 543.21 540.58)" id="path1"  >
<path style="stroke: rgb(0,0,0); stroke-width: 0; stroke-dasharray: none; stroke-linecap: butt; stroke-dashoffset: 0; stroke-linejoin: miter; stroke-miterlimit: 4; fill: rgb(0,0,0); fill-rule: nonzero; opacity: 1;" vector-effect="non-scaling-stroke"  transform=" translate(-0.5, 0.59)" d="M 26.937541 -8.4134053 L 25.445541 -8.9464053 C 24.915540999999997 -11.182405 23.211540999999997 -11.396405 23.211540999999997 -11.396405 C 24.064541 -10.012405 23.211540999999997 -8.6264053 23.211540999999997 -8.6264053 C 23.211540999999997 -8.6264053 23.070541 -8.602405300000001 22.829540999999995 -8.5564053 C 22.433540999999995 -9.035405299999999 21.538540999999995 -9.9944053 20.475540999999996 -10.257405 C 20.475540999999996 -10.257405 21.118540999999997 -8.9764053 20.729540999999998 -8.1654053 C 19.483541 -7.9334052999999995 17.901540999999998 -7.6424053 16.291541 -7.3484053 C 12.777539999999998 -6.7104053 14.269540999999998 -9.442405299999999 14.585541 -11.501404999999998 C 14.700541 -12.223404999999998 15.288540999999999 -13.375404999999999 16.016541 -14.581404999999998 C 16.760541 -14.325404999999998 17.390541 -13.486404999999998 17.390541 -13.486404999999998 C 17.602541 -14.437404999999998 17.262541 -15.514404999999998 17.004541 -16.141405 C 17.253541 -16.512404999999998 17.493541 -16.868405 17.731541 -17.206405 C 18.678541 -17.328405 19.638541 -16.061405 19.638541 -16.061405 C 19.904541000000002 -17.259405 19.298541 -18.658405000000002 19.086541 -19.096405 C 19.264541 -19.336405 19.379541 -19.485405 19.379541 -19.485405 C 20.549540999999998 -19.698405 22.041541 -18.422405 22.041541 -18.422405 C 22.573541 -20.126405000000002 20.121541 -23.000405 20.121541 -23.000405 C 20.442541000000002 -24.171405 20.654541000000002 -26.302405 20.121541 -27.152405 C 19.591541 -28.005405000000003 19.697541 -28.643405 19.379541 -29.707405 C 19.060541 -30.772405000000003 18.101541 -30.346405 18.101541 -30.346405 C 16.612541 -31.305405 12.882540000000002 -26.619405 12.882540000000002 -26.619405 L 3.303539800000003 -19.274405 C 0.6405398000000031 -19.166405 2.663539800000003 -20.018405 -1.278460199999997 -19.698405 C -5.216460199999997 -19.379405000000002 -10.220458999999998 -12.779405 -10.220458999999998 -12.779405 L -15.437458999999997 -10.650405000000001 C -24.806458999999997 -7.668405300000002 -28.425458999999996 -10.756405 -25.125459 -7.1354053 C -21.825459 -3.5174053000000005 -17.459459 -1.7934053000000008 -17.459459 -1.7934053000000008 L -17.991459 1.3825946999999994 C -19.908459 3.6165946999999994 -25.552459 3.2975946999999994 -25.552459 3.2975946999999994 C -23.635458999999997 7.2365946999999995 -21.825459 7.770594699999999 -21.825459 7.770594699999999 L -26.296459 9.1555947 C -18.098459 36.411595 11.71454 28.106595 11.71454 28.106595 C 8.3065398 27.147595 7.4565398 23.102595 7.4565398 23.102595 C 9.3715398 24.165595 12.565539999999999 21.292595000000002 12.565539999999999 21.292595000000002 C 9.049539799999998 20.866595000000004 6.709539799999998 12.346595000000002 6.709539799999998 12.346595000000002 C 9.943539799999998 11.099595000000003 11.714539999999998 7.130594700000002 11.714539999999998 7.130594700000002 C 11.714539999999998 7.130594700000002 15.143540999999997 3.671594700000002 18.310540999999997 0.9535947200000026 C 18.317541 0.9455947200000026 18.323541 0.9435947200000026 18.331540999999998 0.9355947200000025 C 20.987540999999997 -1.4424052999999974 24.170541 0.42159472000000253 24.170541 0.42159472000000253 C 25.557541 -0.7474052799999975 26.940541 -4.368405299999997 26.940541 -4.368405299999997 C 27.788541 -6.071405299999998 26.937541 -8.413405299999997 26.937541 -8.413405299999997 z M -2.2604602 -10.552405 C -1.7604601999999998 -14.932405 2.8705398000000004 -14.681405 2.8705398000000004 -14.681405 C 3.7465398000000003 -9.426405299999999 -2.2604602 -10.552405 -2.2604602 -10.552405 z" stroke-linecap="round" />
</g>
</svg>